<svg id="intagram_ligth" data-name="intagram ligth" xmlns="http://www.w3.org/2000/svg" viewBox="0 0 62.4 62.4"><defs><style>.cls-1{fill:none;stroke:#fff;stroke-miterlimit:10;}.cls-2{fill:#fff;}</style></defs><circle class="cls-1" cx="31.2" cy="31.2" r="30.7"/><path class="cls-2" d="M26.06,17.49a8.59,8.59,0,0,0-8.57,8.57V37.94a8.59,8.59,0,0,0,8.57,8.57H37.94a8.59,8.59,0,0,0,8.57-8.57V26.06a8.59,8.59,0,0,0-8.57-8.57Zm0,1.32H37.94a7.24,7.24,0,0,1,7.25,7.25V37.94a7.24,7.24,0,0,1-7.25,7.25H26.06a7.24,7.24,0,0,1-7.25-7.25V26.06A7.24,7.24,0,0,1,26.06,18.81Zm13.85,4a1.32,1.32,0,1,0,1.32,1.32A1.32,1.32,0,0,0,39.91,22.77Zm-7.91,2A7.25,7.25,0,1,0,39.25,32,7.26,7.26,0,0,0,32,24.75Zm0,1.31A5.94,5.94,0,1,1,26.06,32,5.93,5.93,0,0,1,32,26.06Z" transform="translate(-0.86 -0.94)"/></svg>