<svg id="youtube" xmlns="http://www.w3.org/2000/svg" viewBox="0 0 62.4 62.4"><defs><style>.cls-1{fill:none;stroke:#fff;stroke-miterlimit:10;}.cls-2{fill:#fff;}</style></defs><circle class="cls-1" cx="31.2" cy="31.2" r="30.7"/><path class="cls-2" d="M47.4,24.09A4.29,4.29,0,0,0,44,20.84,67.89,67.89,0,0,0,32,19.94a68.84,68.84,0,0,0-12.14.9,4.18,4.18,0,0,0-3.39,3.25,49.83,49.83,0,0,0-.6,7.91,40.66,40.66,0,0,0,.68,7.91,4.29,4.29,0,0,0,3.39,3.25,70.09,70.09,0,0,0,12.13.9,70.13,70.13,0,0,0,12.14-.9,4.18,4.18,0,0,0,3.39-3.25A56.72,56.72,0,0,0,48.3,32,52,52,0,0,0,47.4,24.09ZM27.88,37.28V26.72L37.07,32Z" transform="translate(-0.86 -0.94)"/><polygon points="36.21 31.06 27.02 36.34 27.02 25.78 36.21 31.06"/></svg>