<svg xmlns="http://www.w3.org/2000/svg" viewBox="0 0 62.4 62.4"><defs><style>.cls-1{fill:none;stroke:#fff;stroke-miterlimit:10;}.cls-2{fill:#fff;}</style></defs><g id="Capa_2" data-name="Capa 2"><circle class="cls-1" cx="31.2" cy="31.2" r="30.7"/><path class="cls-2" d="M48.91,21.55a16.82,16.82,0,0,1-4,1.1,7.07,7.07,0,0,0,3-3.8,13,13,0,0,1-4.4,1.7,7,7,0,0,0-5-2.2,6.91,6.91,0,0,0-6.7,8.5,19.54,19.54,0,0,1-14.2-7.2,7,7,0,0,0,2.1,9.2,5.61,5.61,0,0,1-3.1-.9,6.76,6.76,0,0,0,5.5,6.8,6.47,6.47,0,0,1-3.1.1,7,7,0,0,0,6.4,4.8,13.84,13.84,0,0,1-10.2,2.9,19.12,19.12,0,0,0,10.6,3.1c12.8,0,20-10.8,19.6-20.5A13.3,13.3,0,0,0,48.91,21.55Z" transform="translate(-0.86 -0.94)"/></g></svg>