<svg id="intagram_ligth" data-name="intagram ligth" xmlns="http://www.w3.org/2000/svg" viewBox="0 0 61.88 61.88"><path d="M30.94,0A30.94,30.94,0,1,0,61.88,30.94h0A31,31,0,0,0,30.94,0Zm0,59.88A28.94,28.94,0,1,1,59.88,30.94h0A29,29,0,0,1,30.94,59.88Z" transform="translate(0)" fill="#696969"/><path d="M38.83,21.57h0a1.32,1.32,0,1,0,1.32,1.32h0A1.32,1.32,0,0,0,38.83,21.57Zm0,0h0a1.32,1.32,0,1,0,1.32,1.32h0A1.32,1.32,0,0,0,38.83,21.57Zm0,0h0a1.32,1.32,0,1,0,1.32,1.32h0A1.32,1.32,0,0,0,38.83,21.57Z" transform="translate(0)" fill="#696969"/><path d="M36.82,16.29H24.94a8.59,8.59,0,0,0-8.57,8.57V36.74a8.59,8.59,0,0,0,8.57,8.57H36.82a8.59,8.59,0,0,0,8.57-8.57V24.86A8.59,8.59,0,0,0,36.82,16.29Zm7.25,8.57V36.74A7.24,7.24,0,0,1,36.84,44H24.94a7.23,7.23,0,0,1-7.2-7.25V24.86A7.24,7.24,0,0,1,25,17.61h11.9a7.24,7.24,0,0,1,7.25,7.23h0Z" transform="translate(0)" fill="#696969"/><path d="M30.88,23.55v.06a7.25,7.25,0,1,0,7.25,7.25h0V30.8A7.27,7.27,0,0,0,30.88,23.55Zm0,13.25a5.94,5.94,0,0,1-5.94-5.94h0V30.8a5.92,5.92,0,0,1,5.9-5.94h0v.06a5.94,5.94,0,0,1,0,11.88Z" transform="translate(0)" fill="#696969"/></svg>