<svg id="intagram_ligth" data-name="intagram ligth" xmlns="http://www.w3.org/2000/svg" viewBox="0 0 61.88 61.88"><path d="M52.8,9.08a30.91,30.91,0,1,0,9.08,21.86A30.9,30.9,0,0,0,52.8,9.08ZM51.39,51.39a28.92,28.92,0,1,1,8.49-20.45A29,29,0,0,1,51.39,51.39Z" transform="translate(0 0)" style="fill:#696969"/><path d="M46.26,23a4.3,4.3,0,0,0-3.4-3.25,68,68,0,0,0-12-.9,68.51,68.51,0,0,0-12.14.9A4.17,4.17,0,0,0,15.33,23a49.9,49.9,0,0,0-.6,7.91,39.63,39.63,0,0,0,.68,7.91A4.27,4.27,0,0,0,18.8,42.1a70.33,70.33,0,0,0,12.13.9,70.59,70.59,0,0,0,12.14-.9,4.18,4.18,0,0,0,3.39-3.25,58.25,58.25,0,0,0,.7-7.91A52.49,52.49,0,0,0,46.26,23ZM26.74,36.22V25.66l9.19,5.28Z" transform="translate(0 0)" style="fill:#606060"/></svg>