<?xml version="1.0" encoding="utf-8"?>
<!-- Generator: Adobe Illustrator 25.2.1, SVG Export Plug-In . SVG Version: 6.00 Build 0)  -->
<svg version="1.1" xmlns="http://www.w3.org/2000/svg" xmlns:xlink="http://www.w3.org/1999/xlink" x="0px" y="0px"
	 viewBox="0 0 100 60" style="enable-background:new 0 0 100 60;" xml:space="preserve">
<style type="text/css">
	.st0{fill:#E8F1FE;}
	.st1{fill:#016FD0;}
	.st2{display:none;}
	.st3{display:inline;fill:#1434CB;}
	.st4{display:inline;}
	.st5{fill:#FF5A00;}
	.st6{fill:#EB001B;}
	.st7{fill:#F79E1B;}
	.st8{fill:#FFFFFF;}
	.st9{display:inline;fill:#FFFFFF;}
</style>
<g id="Capa_1">
	<path class="st0" d="M93.6,58.2H6.4c-2.8,0-5-2.2-5-5V6.8c0-2.8,2.2-5,5-5h87.1c2.8,0,5,2.2,5,5v46.4
		C98.6,55.9,96.3,58.2,93.6,58.2z"/>
</g>
<g id="Capa_3">
</g>
<g id="Capa_2">
	<g id="Capa_4">
		<g id="layer1" transform="translate(-55.5,-1002.3452)">
			<path id="path3046" class="st1" d="M68.7,1019.1l-4.1,9.6h2.7l0.8-1.9h4.4l0.8,1.9h2.8l-4.1-9.6H68.7L68.7,1019.1z M70.2,1021.4
				l1.4,3.4h-2.7L70.2,1021.4z"/>
			<path id="path3048" class="st1" d="M76.2,1028.7v-9.6l3.8,0l2.2,6.2l2.2-6.2h3.8v9.6h-2.4v-7.1l-2.5,7.1h-2.1l-2.6-7.1v7.1H76.2z
				"/>
			<path id="path3050" class="st1" d="M89.9,1028.7v-9.6h7.8v2.1h-5.4v1.6h5.3v2h-5.3v1.7h5.4v2.1H89.9z"/>
			<path id="path3052" class="st1" d="M99.1,1019.1v9.6h2.4v-3.4h1l2.9,3.4h2.9l-3.2-3.5c1.3-0.1,2.6-1.2,2.6-3c0-2-1.6-3.1-3.4-3.1
				H99.1L99.1,1019.1z M101.5,1021.3h2.7c0.7,0,1.1,0.5,1.1,1c0,0.6-0.6,1-1.1,1h-2.8V1021.3L101.5,1021.3z"/>
			<path id="path3054" class="st1" d="M111.2,1028.7h-2.5v-9.6h2.5V1028.7z"/>
			<path id="path3056" class="st1" d="M117.1,1028.7h-0.5c-2.6,0-4.1-2-4.1-4.8c0-2.8,1.5-4.8,4.8-4.8h2.7v2.3h-2.8
				c-1.3,0-2.2,1-2.2,2.6c0,1.9,1.1,2.6,2.6,2.6h0.6L117.1,1028.7z"/>
			<path id="path3058" class="st1" d="M122.3,1019.1l-4.1,9.6h2.7l0.8-1.9h4.4l0.8,1.9h2.8l-4.1-9.6H122.3L122.3,1019.1z
				 M123.8,1021.4l1.4,3.4h-2.7L123.8,1021.4L123.8,1021.4z"/>
			<path id="path3060" class="st1" d="M129.8,1028.7v-9.6h3.1l3.9,6v-6h2.4v9.6h-3l-4-6.2v6.2H129.8z"/>
			<path id="path3062" class="st1" d="M82,1045.6v-9.6h7.8v2.1h-5.4v1.6h5.3v2h-5.3v1.7h5.4v2.1H82z"/>
			<path id="path3064" class="st1" d="M120.4,1045.6v-9.6h7.8v2.1h-5.4v1.6h5.3v2h-5.3v1.7h5.4v2.1H120.4z"/>
			<path id="path3066" class="st1" d="M90.2,1045.6l3.8-4.7l-3.9-4.9h3l2.3,3l2.3-3h2.9l-3.9,4.8l3.8,4.8h-3l-2.3-3l-2.2,3H90.2z"/>
			<path id="path3068" class="st1" d="M100.9,1035.9v9.6h2.5v-3h2.5c2.1,0,3.8-1.1,3.8-3.3c0-1.8-1.3-3.2-3.4-3.2H100.9
				L100.9,1035.9z M103.4,1038.1h2.7c0.7,0,1.2,0.4,1.2,1.1c0,0.6-0.5,1.1-1.2,1.1h-2.7V1038.1L103.4,1038.1z"/>
			<path id="path3072" class="st1" d="M110.7,1035.9v9.6h2.4v-3.4h1l2.9,3.4h2.9l-3.2-3.5c1.3-0.1,2.6-1.2,2.6-3
				c0-2-1.6-3.1-3.4-3.1H110.7L110.7,1035.9z M113.1,1038.1h2.7c0.7,0,1.1,0.5,1.1,1c0,0.6-0.6,1-1.1,1h-2.8V1038.1z"/>
			<path id="path3074" class="st1" d="M129.4,1045.6v-2.1h4.8c0.7,0,1-0.4,1-0.8c0-0.4-0.3-0.8-1-0.8H132c-1.9,0-2.9-1.2-2.9-2.9
				c0-1.5,1-3,3.8-3h4.7l-1,2.2h-4c-0.8,0-1,0.4-1,0.8c0,0.4,0.3,0.8,0.9,0.8h2.3c2.1,0,3,1.2,3,2.8c0,1.7-1,3.1-3.1,3.1H129.4z"/>
			<path id="path3076" class="st1" d="M138.2,1045.6v-2.1h4.8c0.7,0,1-0.4,1-0.8c0-0.4-0.3-0.8-1-0.8h-2.2c-1.9,0-2.9-1.2-2.9-2.9
				c0-1.5,1-3,3.8-3h4.7l-1,2.2h-4c-0.8,0-1,0.4-1,0.8c0,0.4,0.3,0.8,0.9,0.8h2.3c2.1,0,3,1.2,3,2.8c0,1.7-1,3.1-3.1,3.1H138.2z"/>
		</g>
	</g>
</g>
<g id="Capa_5" class="st2">
	<path id="path3789" class="st3" d="M61.1,16.7c-5.8,0-11,3-11,8.6c0,6.4,9.2,6.8,9.2,10c0,1.4-1.5,2.6-4.2,2.6
		c-3.8,0-6.6-1.7-6.6-1.7l-1.2,5.6c0,0,3.2,1.4,7.5,1.4c6.4,0,11.4-3.2,11.4-8.8c0-6.8-9.3-7.2-9.3-10.2c0-1.1,1.3-2.2,3.9-2.2
		c3,0,5.4,1.2,5.4,1.2l1.2-5.4C67.4,17.9,64.8,16.7,61.1,16.7L61.1,16.7z M7.8,17.1L7.7,18c0,0,2.4,0.4,4.7,1.3c2.8,1,3,1.6,3.5,3.5
		l5.2,20.1h7l10.8-25.7h-7l-6.9,17.5l-2.8-14.8c-0.3-1.7-1.6-2.7-3.2-2.7C18.9,17.1,7.8,17.1,7.8,17.1z M41.6,17.1l-5.5,25.7h6.6
		l5.4-25.7L41.6,17.1L41.6,17.1z M78.7,17.1c-1.6,0-2.5,0.9-3.1,2.4l-9.7,23.4h7l1.3-3.9h8.5l0.8,3.9h6.1l-5.4-25.7L78.7,17.1
		L78.7,17.1z M79.6,24.1l2.1,9.7h-5.5L79.6,24.1L79.6,24.1z"/>
</g>
<g id="Capa_6" class="st2">
	<path id="XMLID_1775_" class="st4" d="M32.1,51.3v-2.9c0-1.1-0.7-1.8-1.8-1.8c-0.6,0-1.2,0.2-1.6,0.8c-0.3-0.5-0.8-0.8-1.5-0.8
		c-0.5,0-1,0.1-1.3,0.7v-0.6h-1v4.6h1v-2.6c0-0.8,0.4-1.2,1.1-1.2c0.7,0,1,0.4,1,1.2v2.6h1v-2.6c0-0.8,0.5-1.2,1.1-1.2
		c0.7,0,1,0.4,1,1.2v2.6L32.1,51.3L32.1,51.3z M47.1,46.7h-1.6v-1.4h-1v1.4h-0.9v0.9h0.9v2.1c0,1.1,0.4,1.7,1.6,1.7
		c0.4,0,0.9-0.1,1.3-0.3L47,50.2c-0.3,0.2-0.6,0.2-0.9,0.2c-0.5,0-0.7-0.3-0.7-0.8v-2.1h1.6L47.1,46.7L47.1,46.7z M55.7,46.6
		c-0.6,0-1,0.3-1.2,0.7v-0.6h-1v4.6h1v-2.6c0-0.8,0.3-1.2,1-1.2c0.2,0,0.4,0.1,0.6,0.1l0.3-1C56.2,46.6,55.9,46.6,55.7,46.6
		L55.7,46.6z M42.7,47c-0.5-0.3-1.2-0.5-1.9-0.5c-1.2,0-1.9,0.6-1.9,1.5c0,0.8,0.6,1.2,1.6,1.3l0.5,0.1c0.5,0.1,0.8,0.2,0.8,0.5
		c0,0.3-0.4,0.6-1.1,0.6c-0.7,0-1.2-0.2-1.5-0.5l-0.5,0.8c0.5,0.4,1.3,0.6,2,0.6c1.3,0,2.1-0.6,2.1-1.5c0-0.8-0.6-1.3-1.6-1.4
		l-0.5-0.1C40.3,48.4,40,48.3,40,48c0-0.3,0.3-0.5,0.9-0.5c0.6,0,1.2,0.2,1.4,0.4L42.7,47L42.7,47z M69.6,46.6c-0.6,0-1,0.3-1.2,0.7
		v-0.6h-1v4.6h1v-2.6c0-0.8,0.3-1.2,1-1.2c0.2,0,0.4,0.1,0.6,0.1l0.3-1C70.1,46.6,69.8,46.6,69.6,46.6L69.6,46.6z M56.7,49
		c0,1.4,1,2.4,2.5,2.4c0.7,0,1.2-0.1,1.6-0.5L60.3,50c-0.4,0.3-0.8,0.4-1.2,0.4c-0.8,0-1.4-0.6-1.4-1.5c0-0.9,0.6-1.4,1.4-1.5
		c0.4,0,0.8,0.1,1.2,0.4l0.5-0.8c-0.5-0.4-1-0.5-1.6-0.5C57.7,46.6,56.7,47.6,56.7,49L56.7,49L56.7,49z M66,49v-2.3h-1v0.6
		c-0.3-0.4-0.8-0.7-1.4-0.7c-1.3,0-2.3,1-2.3,2.4s1,2.4,2.3,2.4c0.7,0,1.2-0.2,1.4-0.7v0.6h1V49L66,49z M62.3,49
		c0-0.8,0.5-1.5,1.4-1.5c0.8,0,1.4,0.6,1.4,1.5c0,0.8-0.6,1.5-1.4,1.5C62.9,50.4,62.3,49.8,62.3,49L62.3,49z M50.2,46.6
		c-1.3,0-2.3,1-2.3,2.4c0,1.4,1,2.4,2.4,2.4c0.7,0,1.3-0.2,1.9-0.6L51.7,50c-0.4,0.3-0.9,0.5-1.3,0.5c-0.6,0-1.3-0.3-1.4-1.1h3.4
		c0-0.1,0-0.2,0-0.4C52.4,47.5,51.5,46.6,50.2,46.6L50.2,46.6L50.2,46.6z M50.2,47.4c0.6,0,1.1,0.4,1.2,1.1H49
		C49.1,47.9,49.5,47.4,50.2,47.4L50.2,47.4z M75.3,49v-4.1h-1v2.4c-0.3-0.4-0.8-0.7-1.4-0.7c-1.3,0-2.3,1-2.3,2.4s1,2.4,2.3,2.4
		c0.7,0,1.2-0.2,1.4-0.7v0.6h1V49L75.3,49z M71.6,49c0-0.8,0.5-1.5,1.4-1.5c0.8,0,1.4,0.6,1.4,1.5c0,0.8-0.6,1.5-1.4,1.5
		C72.2,50.4,71.6,49.8,71.6,49L71.6,49z M37.8,49v-2.3h-1v0.6c-0.3-0.4-0.8-0.7-1.4-0.7c-1.3,0-2.3,1-2.3,2.4s1,2.4,2.3,2.4
		c0.7,0,1.2-0.2,1.4-0.7v0.6h1V49L37.8,49z M34.1,49c0-0.8,0.5-1.5,1.4-1.5c0.8,0,1.4,0.6,1.4,1.5c0,0.8-0.6,1.5-1.4,1.5
		C34.6,50.4,34.1,49.8,34.1,49z"/>
	<g class="st4">
		<rect id="rect19" x="42.4" y="11.5" class="st5" width="15.2" height="27.3"/>
		<path id="XMLID_330_" class="st6" d="M43.4,25.2c0-5.5,2.6-10.5,6.6-13.6c-2.9-2.3-6.7-3.7-10.7-3.7C29.7,7.8,22,15.6,22,25.2
			s7.8,17.3,17.3,17.3c4,0,7.8-1.4,10.7-3.7C46,35.7,43.4,30.7,43.4,25.2z"/>
		<path id="path22" class="st7" d="M78,25.2c0,9.6-7.8,17.3-17.3,17.3c-4,0-7.8-1.4-10.7-3.7c4-3.2,6.6-8.1,6.6-13.6
			S54,14.7,50,11.5c2.9-2.3,6.6-3.7,10.7-3.7C70.3,7.8,78,15.6,78,25.2z"/>
	</g>
	<path id="path3082" class="st8" d="M-401.1,181.4V24.7h165.8l17.8,23.2l18.4-23.2h601.9v145.8c0,0-15.7,10.6-33.9,10.8H35.6
		l-20.1-24.7v24.7h-65.7v-42.1c0,0-9,5.9-28.4,5.9H-101v36.3h-99.5l-17.8-23.7l-18,23.7H-401.1z"/>
	<path id="path3080" class="st9" d="M-594.7-93.3l37.4-87.2h64.7l21.2,48.8v-48.8h80.4l12.6,35.3l12.2-35.3H-5.3v17.7
		c0,0,19-17.7,50.1-17.7l117.1,0.4l20.9,48.2v-48.6H250l18.5,27.7v-27.7h67.9v156.6h-67.9l-17.7-27.8v27.8H152L142-48.5h-26.6
		l-9.8,24.7h-67c-26.8,0-44-17.4-44-17.4v17.4h-101.1l-20.1-24.7v24.7h-375.8l-9.9-24.7h-26.5l-9.9,24.7h-46.2V-93.3z"/>
</g>
</svg>
