<svg xmlns="http://www.w3.org/2000/svg" viewBox="0 0 97.14 56.37"><g id="Capa_1" data-name="Capa 1"><rect width="97.14" height="56.37" rx="5" style="fill:#e8f1fe"/></g><g id="Capa_6" data-name="Capa 6"><path d="M32.13,51.29V48.4a1.7,1.7,0,0,0-1.83-1.83,1.89,1.89,0,0,0-1.64.82,1.69,1.69,0,0,0-1.55-.82,1.54,1.54,0,0,0-1.34.68v-.58h-1v4.62h1V48.74c0-.82.43-1.21,1.1-1.21s1,.43,1,1.21v2.55h1V48.74A1.07,1.07,0,0,1,30,47.53c.67,0,1,.43,1,1.21v2.55Zm15-4.62H45.47v-1.4h-1v1.4h-.91v.91h.91V49.7c0,1.07.43,1.69,1.59,1.69a2.74,2.74,0,0,0,1.25-.34L47,50.18a1.62,1.62,0,0,1-.87.24c-.48,0-.67-.29-.67-.77V47.58H47.1v-.91Zm8.58-.1a1.37,1.37,0,0,0-1.21.67v-.58h-1v4.63h1V48.68c0-.77.34-1.2,1-1.2a3.42,3.42,0,0,1,.63.09l.29-1a3.82,3.82,0,0,0-.67,0Zm-13,.48a3.31,3.31,0,0,0-1.88-.48c-1.16,0-1.93.58-1.93,1.49s.58,1.21,1.59,1.35l.48.05c.53.09.82.24.82.48s-.39.58-1.06.58A2.65,2.65,0,0,1,39.21,50l-.48.76a3.34,3.34,0,0,0,2,.58c1.35,0,2.12-.63,2.12-1.49s-.63-1.25-1.59-1.4l-.48-.05c-.43,0-.77-.14-.77-.43s.34-.53.87-.53a3.41,3.41,0,0,1,1.45.39l.43-.82Zm26.87-.48a1.37,1.37,0,0,0-1.2.67v-.58h-1v4.63h1V48.68c0-.77.33-1.2,1-1.2a3.54,3.54,0,0,1,.63.09l.29-1a3.07,3.07,0,0,0-.68,0ZM56.7,49a2.31,2.31,0,0,0,2.45,2.41,2.42,2.42,0,0,0,1.64-.53L60.31,50a2,2,0,0,1-1.21.43A1.36,1.36,0,0,1,57.71,49a1.41,1.41,0,0,1,1.39-1.49,2,2,0,0,1,1.21.43l.48-.82a2.37,2.37,0,0,0-1.64-.53A2.31,2.31,0,0,0,56.7,49ZM66,49V46.67H65v.58a1.74,1.74,0,0,0-1.45-.68,2.41,2.41,0,0,0,0,4.82A1.63,1.63,0,0,0,65,50.71v.58h1V49Zm-3.71,0a1.4,1.4,0,1,1,2.79,0,1.4,1.4,0,1,1-2.79,0ZM50.24,46.57a2.41,2.41,0,0,0,0,4.81,2.91,2.91,0,0,0,1.88-.63L51.69,50a2.31,2.31,0,0,1-1.35.48,1.3,1.3,0,0,1-1.4-1.1h3.42V49a2.12,2.12,0,0,0-2.12-2.45Zm0,.87a1.12,1.12,0,0,1,1.16,1.1H49a1.22,1.22,0,0,1,1.25-1.1ZM75.34,49V44.84h-1v2.41a1.74,1.74,0,0,0-1.45-.68,2.41,2.41,0,0,0,0,4.82,1.63,1.63,0,0,0,1.45-.68v.58h1V49Zm-3.71,0a1.4,1.4,0,1,1,2.79,0,1.4,1.4,0,1,1-2.79,0ZM37.81,49V46.67h-1v.58a1.74,1.74,0,0,0-1.45-.68,2.41,2.41,0,0,0,0,4.82,1.61,1.61,0,0,0,1.45-.68v.58h1V49Zm-3.75,0a1.38,1.38,0,0,1,1.39-1.49A1.4,1.4,0,0,1,36.85,49a1.4,1.4,0,1,1-2.79,0Z" transform="translate(-1.43 -1.81)"/><rect id="rect19" x="40.96" y="9.73" width="15.18" height="27.26" style="fill:#ff5a00"/><path d="M43.4,25.18A17.36,17.36,0,0,1,50,11.55a17.34,17.34,0,1,0,0,27.26A17.3,17.3,0,0,1,43.4,25.18Z" transform="translate(-1.43 -1.81)" style="fill:#eb001b"/><path id="path22" d="M78,25.18A17.33,17.33,0,0,1,50,38.81a17.37,17.37,0,0,0,0-27.26A17.17,17.17,0,0,1,60.69,7.84,17.36,17.36,0,0,1,78,25.18Z" transform="translate(-1.43 -1.81)" style="fill:#f79e1b"/></g></svg>