<svg xmlns="http://www.w3.org/2000/svg" viewBox="0 0 97.14 56.37"><g id="Capa_1" data-name="Capa 1"><rect width="97.14" height="56.37" rx="5" style="fill:#e8f1fe"/></g><g id="Capa_5" data-name="Capa 5"><path id="path3789" d="M61.05,16.72c-5.82,0-11,3-11,8.59,0,6.39,9.22,6.83,9.22,10,0,1.36-1.55,2.57-4.19,2.57a13.84,13.84,0,0,1-6.56-1.7l-1.2,5.63a20.43,20.43,0,0,0,7.52,1.43c6.36,0,11.37-3.17,11.37-8.84,0-6.75-9.26-7.18-9.26-10.16,0-1.05,1.27-2.21,3.91-2.21a13.23,13.23,0,0,1,5.4,1.23l1.18-5.44a17.57,17.57,0,0,0-6.37-1.14Zm-53.23.41L7.68,18a27.3,27.3,0,0,1,4.65,1.35c2.84,1,3,1.62,3.52,3.47l5.21,20.08h7L38.8,17.13h-7L24.92,34.62,22.1,19.8a3.06,3.06,0,0,0-3.18-2.67Zm33.78,0L36.14,42.85h6.64l5.45-25.72Zm37.06,0c-1.6,0-2.45.86-3.08,2.36L65.85,42.85h7L74.17,39h8.48l.82,3.89h6.15L84.26,17.13Zm.9,7,2.07,9.65H76.1l3.46-9.65Z" transform="translate(-1.43 -1.81)" style="fill:#1434cb"/></g></svg>