<svg id="Capa_4" data-name="Capa 4" xmlns="http://www.w3.org/2000/svg" xmlns:xlink="http://www.w3.org/1999/xlink" viewBox="0 0 39.66 22.5"><defs><linearGradient id="Degradado_sin_nombre_9" x1="1.67" y1="27.87" x2="38.33" y2="27.87" gradientTransform="matrix(-1, 0, 0, 1.45, 40, -12.47)" gradientUnits="userSpaceOnUse"><stop offset="0" stop-color="#fed046"/><stop offset="0" stop-color="#fdce45"/><stop offset="0.07" stop-color="#e4aa32"/><stop offset="0.14" stop-color="#cf8d22"/><stop offset="0.21" stop-color="#bf7616"/><stop offset="0.29" stop-color="#b4660d"/><stop offset="0.37" stop-color="#ad5c08"/><stop offset="0.49" stop-color="#ab5906"/><stop offset="0.61" stop-color="#ad5c08"/><stop offset="0.71" stop-color="#b4670d"/><stop offset="0.8" stop-color="#c17816"/><stop offset="0.89" stop-color="#d19123"/><stop offset="0.98" stop-color="#e7b134"/><stop offset="1" stop-color="#edb938"/></linearGradient></defs><rect x="1.67" y="27.35" width="36.66" height="0.99" transform="translate(39.85 46.95) rotate(180)" style="fill:url(#Degradado_sin_nombre_9)"/><path d="M13.66,22.73a7.48,7.48,0,0,1-1.86,3,4.45,4.45,0,0,1-3.13,1.23,5.18,5.18,0,0,1-4.41-2.35,8.64,8.64,0,0,1-1.49-5.1A11.85,11.85,0,0,1,3.05,17a7.35,7.35,0,0,1,2-3.72,5.2,5.2,0,0,1,3.75-1.53,4.56,4.56,0,0,1,.82.08,10.51,10.51,0,0,1,1.26.3l.62.21a3,3,0,0,0,.67.14,1.25,1.25,0,0,0,.53-.13.81.81,0,0,0,.34-.39h.29v5.27h-.39V16.3a4.69,4.69,0,0,0-.9-3.08,3.67,3.67,0,0,0-2.95-1.17H8.62A4.21,4.21,0,0,0,5.3,14.6a10.12,10.12,0,0,0-.82,4.31,15.66,15.66,0,0,0,.43,3.92,5.8,5.8,0,0,0,1,2.09A4.22,4.22,0,0,0,7.26,26a3.53,3.53,0,0,0,1.65.4,4,4,0,0,0,2.79-1.17,5.87,5.87,0,0,0,1.61-2.65Z" transform="translate(-0.15 -8.75)"/><polygon points="17.28 17.82 17.28 17.99 13.93 17.99 13.93 17.82 14.97 17.82 14.97 3.34 13.93 3.34 13.93 3.17 16.24 3.17 16.24 17.82 17.28 17.82"/><path d="M27.43,26.56v.18h-2.3V24.81q-.18.26-.39.51a1.29,1.29,0,0,1-.16.17,7,7,0,0,1-1.55,1,4,4,0,0,1-1.67.38,2.78,2.78,0,0,1-1.84-.63,2.34,2.34,0,0,1-.84-1.72V16.08h-1v-.17h2.29v7.68a3.42,3.42,0,0,0,.44,1.83,1.82,1.82,0,0,0,1.66.8,3.44,3.44,0,0,0,1.64-.44,5,5,0,0,0,1.47-1.1v-8.6H24.07v-.17h2.32V26.56Z" transform="translate(-0.15 -8.75)"/><path d="M36.55,19.32a5.94,5.94,0,0,0-.4-1.57A3.17,3.17,0,0,0,35,16.36a2.92,2.92,0,0,0-1.64-.51c-1.2,0-2.34.78-3.41,2.31l0-6.24H27.63v.17h1V26.74h.17l.66-1.14A4.65,4.65,0,0,0,32.71,27a3.38,3.38,0,0,0,2.65-1.17A4.9,4.9,0,0,0,36.53,23q.09-.56.12-1c0-.33,0-.62,0-.88A11.88,11.88,0,0,0,36.55,19.32Zm-1.36.35v3.21a4.93,4.93,0,0,1-.79,3.06,2.12,2.12,0,0,1-1.73.8,3.31,3.31,0,0,1-.77-.09,2.57,2.57,0,0,1-1.45-.74A2.26,2.26,0,0,1,30,24.34v-6a5.53,5.53,0,0,1,1.23-1.28,2.89,2.89,0,0,1,1.67-.49,2.08,2.08,0,0,1,1.41.49A2.61,2.61,0,0,1,35,18.24c.06.25.12.43.15.59a5.84,5.84,0,0,1,.1.84Z" transform="translate(-0.15 -8.75)"/><path d="M36.06,31.25H3.9A3.75,3.75,0,0,1,.15,27.5v-15A3.75,3.75,0,0,1,3.9,8.75H36.06a3.75,3.75,0,0,1,3.75,3.75v15A3.75,3.75,0,0,1,36.06,31.25ZM3.9,10.25A2.25,2.25,0,0,0,1.65,12.5v15A2.25,2.25,0,0,0,3.9,29.75H36.06a2.25,2.25,0,0,0,2.25-2.25v-15a2.25,2.25,0,0,0-2.25-2.25Z" transform="translate(-0.15 -8.75)"/></svg>