<svg xmlns="http://www.w3.org/2000/svg" viewBox="0 0 35.39 33.14"><g id="Capa_11" data-name="Capa 11"><path d="M36.73,9H27a3.21,3.21,0,0,0,.39-.84A4,4,0,0,0,25,3.26a4.23,4.23,0,0,0-3.68.36,3.42,3.42,0,0,0-.89.89,3.42,3.42,0,0,0-.89-.89,4.24,4.24,0,0,0-3.64-.38,4.05,4.05,0,0,0-2.42,4.94,3.21,3.21,0,0,0,.39.84H4.34a1.5,1.5,0,0,0-1.5,1.5v5.12A1.5,1.5,0,0,0,4.1,17.12v19H37.15V17.07a1.48,1.48,0,0,0,1.08-1.43V10.52A1.5,1.5,0,0,0,36.73,9ZM17,34.13H6.1v-17H17Zm0-19H4.84V11H17ZM16,8.51a1.91,1.91,0,0,1-.61-.91,2,2,0,0,1,1.17-2.47A2.56,2.56,0,0,1,17.43,5a1.68,1.68,0,0,1,1,.28c.66.46,1,1.57,1,3.22V9H17.61A2.52,2.52,0,0,1,16,8.51Zm5.9,25.62H19v-17h3Zm0-19H19V11h3ZM21.45,9V8.48c0-1.64.34-2.75,1-3.21a2.25,2.25,0,0,1,1.87-.13A2,2,0,0,1,25.47,7.6a1.82,1.82,0,0,1-.62.91A2.47,2.47,0,0,1,23.27,9Zm13.7,25.11H23.92v-17H35.15Zm1.08-19H23.92V11H36.23Z" transform="translate(-2.84 -2.99)"/></g></svg>