<?xml version="1.0" encoding="utf-8"?>
<!-- Generator: Adobe Illustrator 25.2.1, SVG Export Plug-In . SVG Version: 6.00 Build 0)  -->
<svg version="1.1" id="Capa_1" xmlns="http://www.w3.org/2000/svg" xmlns:xlink="http://www.w3.org/1999/xlink" x="0px" y="0px"
	 viewBox="0 0 512 512" style="enable-background:new 0 0 512 512;" xml:space="preserve">
<style type="text/css">
	.st0{fill:none;stroke:#000000;stroke-width:12;}
	.st1{fill:none;stroke:#000000;stroke-width:6;}
</style>
<g id="Capa_4">
	<path class="st0" d="M50.5,107.9h411c17.3,0,31.3,14,31.3,31.3v233.7c0,17.3-14,31.3-31.3,31.3h-411c-17.3,0-31.3-14-31.3-31.3
		V139.1C19.2,121.9,33.2,107.9,50.5,107.9z"/>
</g>
<g id="Capa_5">
	<circle class="st1" cx="157.7" cy="255.4" r="98.3"/>
	<path d="M106,279.6c2.4,0,4.8-0.3,7.2-0.8c2.3-0.5,4.6-1.3,6.7-2.3l-2.4,2.3l5.6-11.9h1.5l-1.7,12c-2.4,1-5,1.8-7.6,2.3
		c-3.1,0.6-6.2,0.9-9.3,0.9c-4.2,0-8.4-0.6-12.5-1.9c-3.7-1.2-7.1-3.1-10-5.7c-2.8-2.5-5.1-5.7-6.6-9.2c-1.6-3.9-2.4-8.2-2.3-12.4
		c-0.1-5.5,1.2-10.9,3.9-15.6c2.6-4.5,6.4-8.1,11-10.4c7.3-3.3,15.4-4.4,23.3-3.1c2.4,0.4,4.7,1,7,1.7l-2.4-0.2l3.5-3.4h0.5
		l2.8,18.7l-1.4,0.3l-6.3-13.4l2.9,2.8c-2.5-1.4-5.1-2.6-7.8-3.4c-2.4-0.7-4.9-1-7.4-1c-3.5-0.1-7,0.5-10.3,1.7
		c-6,2.1-10.7,6.8-12.8,12.8c-1.2,3.5-1.8,7.1-1.7,10.7c-0.1,4.1,0.6,8.3,2,12.2c1.2,3.3,3.2,6.4,5.7,8.9c2.4,2.4,5.2,4.3,8.4,5.5
		C99,279,102.5,279.6,106,279.6z"/>
	<path d="M140.4,278.6l6.6,1.4v1.2h-17.2V280l6.5-1.4v-51.8c-0.5-0.3-1-0.6-1.5-0.8c-0.7-0.3-1.4-0.6-2.4-1s-1.9-0.7-3-1.1v-0.7
		l10.8-2.6h0.5l-0.2,5.5L140.4,278.6z"/>
	<path d="M160.2,268.9c-0.1,1.9,0.2,3.7,0.8,5.5c0.5,1.3,1.5,2.3,2.8,2.8c1.8,0.6,3.6,0.9,5.5,0.8c1.9,0,3.7-0.4,5.4-1
		c2.1-0.8,4-2,5.6-3.5l1.2,0.9c-1.4,1.4-2.9,2.7-4.5,3.9c-1.1,0.9-2.4,1.7-3.7,2.3c-1,0.5-2.2,0.9-3.3,1.2c-1.1,0.2-2.2,0.3-3.3,0.3
		c-3.8,0-6.5-1-8.2-2.9c-1.7-2-2.5-5-2.5-9.2v-21.8l-7.4-2v-1.2l12-0.7l-0.4,4L160.2,268.9z M180.1,282.1l-0.2-7.3v-26.6l-7.3-2
		v-1.2l11.9-0.7l-0.4,4v28.4c0.4,0.2,0.8,0.3,1.2,0.4l1.9,0.5c0.7,0.2,1.4,0.3,2.1,0.4l1.7,0.3v1l-10.3,2.8L180.1,282.1z"/>
	<path d="M199.8,278.3l2.8-0.2l-4.7,4.1l-1-0.3l1.2-8.2v-46.8c-0.5-0.3-1-0.6-1.5-0.8c-0.7-0.3-1.4-0.6-2.4-1c-1-0.4-1.9-0.7-3-1.1
		v-0.7l10.8-2.6h0.5l-0.1,5.5v46.1c0,1.4,0.5,2.7,1.3,3.8c1,1.2,2.2,2.1,3.7,2.6c1.7,0.7,3.5,1,5.3,0.9c2.7,0.1,5.5-0.6,7.8-2
		c2.2-1.4,3.9-3.3,4.9-5.7c1.2-2.8,1.8-5.9,1.7-8.9c0.1-2.9-0.5-5.8-1.7-8.4c-1-2.2-2.7-4-4.7-5.3c-2.2-1.2-4.6-1.8-7.1-1.8
		c-1.5,0-3.1,0.2-4.6,0.5c-1.6,0.4-3.1,0.9-4.6,1.6c-1.6,0.8-3.2,1.7-4.6,2.8v-2.2c2.1-1.3,3.9-2.3,5.4-3.1c1.3-0.7,2.6-1.3,3.9-1.9
		c1-0.4,2-0.7,3.1-0.9c0.9-0.2,1.9-0.3,2.8-0.3c3.2-0.1,6.3,0.6,9.1,2.1c2.5,1.4,4.5,3.5,5.7,6c1.3,2.9,2,6.2,1.9,9.4
		c0.1,3-0.5,6-1.6,8.7c-1,2.4-2.5,4.6-4.4,6.4c-1.8,1.7-4,3.1-6.3,4c-2.4,0.9-4.9,1.4-7.4,1.4c-1.5,0-3.1-0.1-4.6-0.4
		c-1.5-0.3-2.9-0.7-4.3-1.3C202.1,279.9,200.9,279.2,199.8,278.3z"/>
	<line class="st1" x1="291.7" y1="206.3" x2="451.5" y2="206.3"/>
	<line class="st1" x1="291.7" y1="303" x2="451.5" y2="303"/>
	<line class="st1" x1="371.6" y1="353.7" x2="451.5" y2="353.7"/>
	<line class="st1" x1="291.7" y1="157.1" x2="371.6" y2="157.1"/>
	<line class="st1" x1="291.7" y1="254.6" x2="451.5" y2="254.6"/>
</g>
</svg>
