<svg xmlns="http://www.w3.org/2000/svg" width="189" height="52" viewBox="0 0 189 52">
  <path fill="#F0047F" d="M2.48 49.49C5.79 49.49 6.94 48.77 6.94 45.1L6.94 6.5C6.94 2.76 5.79 2.11 2.48 2.11L.1 2.11.1 1.17 35.17 1.17 35.89 18.45 35.17 18.45C34.17 5.56 32.87 2.11 21.35 2.11L15.44 2.11C12.13 2.11 10.76 2.76 10.76 6.43L10.76 24.36 16.09 24.36C23.09 24.36 24.15 19.97 24.23 14.13L25 14.13 25 36.13 24.28 36.13C24.2 30.13 23.2 25.26 16.14 25.26L10.76 25.26 10.76 45.13C10.76 48.73 12.13 49.45 15.44 49.45L22.21 49.45C33.21 49.45 35.53 43.83 36.4 31.59L37.19 31.59 36 50.43.1 50.43.1 49.49 2.48 49.49zM40.64 49.49C43.96 49.49 45.11 48.99 45.11 45.17L45.11 6.43C45.11 2.54 43.96 2.11 40.64 2.11L38.27 2.11 38.27 1.17 57.21 1.17 57.21 2.11 53.61 2.11C50.29 2.11 48.93 2.61 48.93 6.43L48.93 45.17C48.93 48.91 50.29 49.49 53.61 49.49L57.21 49.49C69.81 49.49 70.82 43.49 72.04 32.06L72.9 32.06 71.61 50.43 38.27 50.43 38.27 49.49 40.64 49.49zM76.14 49.49C79.46 49.49 80.61 48.99 80.61 45.17L80.61 6.43C80.61 2.54 79.46 2.11 76.14 2.11L73.77 2.11 73.77 1.17 92.71 1.17 92.71 2.11 89.11 2.11C85.79 2.11 84.42 2.61 84.42 6.43L84.42 45.17C84.42 48.91 85.79 49.49 89.11 49.49L92.71 49.49C105.31 49.49 106.32 43.49 107.54 32.06L108.4 32.06 107.11 50.43 73.77 50.43 73.77 49.49 76.14 49.49zM120.36 34.51L119.13 38.26C118.13 41.43 117.33 43.73 117.33 45.75 117.33 48.34 118.84 49.49 121.44 49.49L122.88 49.49 122.88 50.43 109.27 50.43 109.27 49.49C113.16 49.27 114.67 46.49 116.61 40.99L131.3.24 132.3.24 148 44.38C149.51 48.7 151.53 49.38 154.48 49.49L154.48 50.43 137.86 50.43 137.86 49.49 139.86 49.49C142.67 49.49 144.4 48.34 144.4 46.9 144.140419 44.7204671 143.581836 42.5870813 142.74 40.56L140.65 34.51 120.36 34.51zM130.51 5.56L120.64 33.56 140.38 33.56 130.51 5.56zM157.66 51.22L156.79 51.22 156.29 31.34 157.29 31.34C159.02 45.6 166.79 50.57 175.58 50.57 181.63 50.57 186.31 46.39 186.31 39.63 186.31 32.42 177.67 29.4 172.12 27.53 166.57 25.66 156.71 24.07 156.71 13.2 156.64515 9.82508848 157.9469 6.56719495 160.319598 4.16625018 162.692297 1.7653054 165.934557.425092573 169.31.44965893 173.56.44965893 175.72 1.6 178.89 3.98 179.83 4.7 180.55 5.49 181.7 5.49 182.85 5.49 183.7 4.27 184.7.6L185.56.6 186 20 185 20C182.19 5.81 175.5 1.13 169.3 1.13 162.82 1.13 159.15 6.39 159.15 11.93 159.15 17.04 161.6 20.5 172.98 23.74 182.41 26.48 188.17 29.65 188.17 38.14 188.17 45.85 182.62 51.25 175.57 51.25 167.93 51.25 165.57 49.3 162.82 47.72 161.98888 47.1297578 161.022494 46.7583355 160.01 46.64 158.86 46.64 158.21 48.44 157.64 51.25"/>
</svg>
