<svg xmlns="http://www.w3.org/2000/svg" width="254" height="40" viewBox="0 0 254 40">
  <g fill="none">
    <path fill="#53BFD8" d="M246.08,25 C246.08,32.07 244.25,37.93 239.3,37.93 C234.35,37.93 232.49,32 232.49,25.16 C232.49,17.25 234.75,12.16 239.3,12.16 C244.57,12.16 246.08,18.79 246.08,24.97 M253.57,24.85 C253.690376,20.8793374 252.081331,17.0519278 249.16,14.36 C246.421544,12.004714 242.911335,10.7408965 239.3,10.81 C235.733976,10.7594707 232.274078,12.0231163 229.58,14.36 C226.502701,17.1703676 224.822972,21.1958634 224.99,25.36 C224.881299,29.1878654 226.40458,32.8815506 229.18,35.52 C231.914961,37.9987954 235.4893,39.3463212 239.18,39.29 C243.068379,39.515794 246.868225,38.0709675 249.624265,35.3187474 C252.380305,32.5665272 253.830401,28.7686882 253.61,24.88 M207.72,12.74 C211.11,12.74 213.23,14.39 213.23,18.4 C213.23,23.06 210.55,24.53 207.04,24.53 L206.4,24.53 L206.4,12.72 L207.72,12.74 Z M210.16,11.55 L195.48,11.55 L195.48,12.45 C196.500128,12.5966347 197.504439,12.8376692 198.48,13.17 C199.308059,13.4623898 199.811684,14.3017641 199.68,15.17 L199.68,35.17 C199.800368,36.0190885 199.294731,36.8323202 198.48,37.1 C197.497765,37.3636186 196.493657,37.537664 195.48,37.62 L195.48,38.53 L210.36,38.53 L210.36,37.62 C209.410695,37.4886475 208.474079,37.2779089 207.56,36.99 C206.781903,36.6716541 206.297396,35.8883677 206.36,35.05 L206.36,25.71 L207.66,25.71 C211.19,25.71 212.15,28.12 212.66,32.43 C213.26,37.43 215.25,39 218.75,39 C223.46,39 224.46,36.46 224.58,33.19 L224.58,31.96 L223.47,31.96 L223.47,33.14 C223.47,35.33 222.79,36.43 221.83,36.43 C221.08,36.43 220.31,35.83 220.03,34.61 C219.64,32.75 219.48,31.32 218.88,29.16 C218.08,26.3 215.09,25.32 213.1,25.08 L213.1,24.8 C216.77,23.85 220.31,21.99 220.31,17.68 C220.31,13.37 216.31,11.51 210.07,11.51 M194.83,30.26 L193.88,30.26 C193.32,31.56 191.88,34.76 190.21,36.35 C189.21,37.3 186.65,37.3 184.46,37.3 C180.83,37.3 180.24,36.83 180.24,33.93 L180.24,25.2 L182.63,25.2 C184.74,25.2 185.58,25.68 186.15,26.26 C186.963944,27.4582095 187.494039,28.8261969 187.7,30.26 L188.7,30.26 L188.7,19 L187.7,19 C187.510458,20.3736278 186.977331,21.6772092 186.15,22.79 C185.63,23.3 184.82,23.89 182.63,23.89 L180.24,23.89 L180.24,12.76 L183.79,12.76 C184.866501,12.7579036 185.942033,12.8247068 187.01,12.96 C189.13,13.24 191.17,16.79 191.76,18.6 L192.76,18.6 L192.76,11.53 L169.41,11.53 L169.41,12.43 C170.428129,12.6054677 171.431131,12.8595615 172.41,13.19 C173.236766,13.4828322 173.737073,14.3236836 173.6,15.19 L173.6,35.19 C173.721534,36.036308 173.220743,36.8485158 172.41,37.12 C171.423079,37.361785 170.420722,37.5355268 169.41,37.64 L169.41,38.55 L194.41,38.55 L194.83,30.26 Z M168.12,38.53 L168.12,37.62 C167.158418,37.4840238 166.208882,37.2733873 165.28,36.99 C164.50584,36.6683677 164.025846,35.8858561 164.09,35.05 L164.09,14.93 C163.971587,14.0819427 164.470373,13.2687957 165.28,12.99 C166.212181,12.7361883 167.161246,12.5490488 168.12,12.43 L168.12,11.53 L153.45,11.53 L153.45,12.43 C154.418329,12.5788818 155.367361,12.8337455 156.28,13.19 C157.096669,13.497403 157.596726,14.3239431 157.49,15.19 L157.49,35.31 C157.6019,36.1626883 157.094988,36.9754224 156.28,37.25 C155.352325,37.4839728 154.404922,37.6312722 153.45,37.69 L153.45,38.6 L168.12,38.53 Z M152.29,31.44 L151.21,30.9 C149.09,34.68 146.58,36.9 142.48,36.9 C137.85,36.9 134.82,32.9 134.82,24.65 C134.82,17.08 137.13,12.1 141.82,12.1 C145.34,12.1 148.25,15.26 150.12,21.29 L151.24,21.29 L151.08,11.16 L149.73,11.16 L148.73,12.62 C146.564909,11.4395663 144.135944,10.8271644 141.67,10.8398023 C133.46,10.8398023 127.47,16.73 127.47,25.32 C127.47,33.91 133.54,39.12 141.11,39.12 C146.108189,39.2013543 150.615301,36.1244992 152.36,31.44 M127.36,12.44 L127.36,11.54 L115.73,11.54 L115.73,12.44 C117.025482,12.6374104 118.277182,13.0568989 119.43,13.68 C120.32,14.44 120.79,16.05 120.79,19.1 L120.79,29.78 L106.56,11.54 L96.63,11.54 L96.63,12.54 C98.0153278,12.8063064 99.3056046,13.4341951 100.37,14.36 C101.208048,15.1805787 101.658703,16.3181206 101.61,17.49 L101.61,31.2 C101.61,34.2 101.25,35.95 100.34,36.63 C99.2155958,37.1920573 97.9932011,37.5316114 96.74,37.63 L96.74,38.54 L108.23,38.54 L108.23,37.63 C106.944935,37.4345183 105.703326,37.0183933 104.56,36.4 C103.69,35.65 103.25,34.1 103.25,30.99 L103.25,17.62 L119.68,38.62 L122.39,38.62 L122.39,18.85 C122.39,15.92 122.79,14.14 123.66,13.47 C124.53,12.8 126.66,12.56 127.3,12.47 M84.39,27.82 L77,27.82 L80.63,18.26 L84.39,27.82 Z M98.18,38.59 L98.18,37.68 C97.3252832,37.5863062 96.4967444,37.3282368 95.74,36.92 C94.9988543,36.5246803 94.4344875,35.8638711 94.16,35.07 C93.44,33.36 86.82,15.8 84.95,11.13 L81.95,11.13 C80.59,14.59 74.3,30.84 73.06,33.88 C72.6501409,35.1137773 71.8674748,36.1899432 70.82,36.96 C70.0312908,37.3706984 69.1669067,37.6157206 68.28,37.68 L68.28,38.59 L79,38.59 L79,37.68 C77.65,37.56 74.65,36.96 74.65,35.57 C74.6818386,34.736619 74.8437948,33.9133417 75.13,33.13 C75.29,32.65 76.13,29.99 76.41,29.36 L85,29.36 L87.23,35.27 C87.3350583,35.5341419 87.3893409,35.8157329 87.39,36.1 C87.39,37.1 84.84,37.56 83.48,37.68 L83.48,38.59 L98.18,38.59 Z M71,12.43 L71,11.53 L59.38,11.53 L59.38,12.43 C60.6786859,12.62727 61.9336955,13.0467341 63.09,13.67 C63.97,14.43 64.45,16.04 64.45,19.09 L64.45,29.77 L50.21,11.53 L40.29,11.53 L40.29,12.53 C41.6623773,12.8023652 42.9406573,13.4260005 44,14.34 C44.8311865,15.1644204 45.2775408,16.3002651 45.23,17.47 L45.23,31.18 C45.23,34.18 44.87,35.93 43.95,36.61 C42.8325627,37.1717071 41.6167726,37.5113132 40.37,37.61 L40.37,38.52 L51.85,38.52 L51.85,37.61 C50.5649349,37.4145183 49.3233263,36.9983933 48.18,36.38 C47.3,35.63 46.86,34.08 46.86,30.97 L46.86,17.62 L63.29,38.62 L66.01,38.62 L66.01,18.85 C66.01,15.92 66.39,14.14 67.27,13.47 C68.15,12.8 70.27,12.56 70.91,12.47 M39.8,38.55 L39.8,37.64 C38.8517411,37.4982258 37.9156883,37.2842708 37,37 C36.2219026,36.6816541 35.7373955,35.8983677 35.8,35.06 L35.8,14.93 C35.6838177,14.0817987 36.1879159,13.2710408 37,13 C37.9290197,12.7471393 38.8746918,12.5600098 39.83,12.44 L39.83,11.54 L25.09,11.54 L25.09,12.44 C26.0610279,12.5914847 27.0130958,12.8462635 27.93,13.2 C28.7412188,13.5115255 29.2332267,14.3384295 29.12,15.2 L29.12,35.32 C29.2343521,36.167205 28.7370267,36.9779707 27.93,37.26 C26.9989224,37.4939069 26.048207,37.6412008 25.09,37.7 L25.09,38.61 L39.8,38.55 Z M24.38,18.69 L24.38,11.53 L0.61,11.53 L0.61,12.43 C1.62812863,12.6054677 2.63113062,12.8595615 3.61,13.19 C4.44904747,13.4688086 4.95883827,14.3184599 4.81,15.19 L4.81,35.19 C4.9220721,36.0373199 4.41947541,36.845663 3.61,37.12 C2.62273399,37.3601311 1.62049001,37.5338534 0.61,37.64 L0.61,38.55 L15.61,38.55 L15.61,37.64 C14.6240114,37.5121957 13.6505605,37.3014486 12.7,37.01 C11.9342757,36.6772005 11.4558532,35.9037507 11.5,35.07 L11.5,25.37 L13.9,25.37 C15.97,25.37 16.9,25.81 17.41,26.44 C18.2404098,27.6776821 18.7836551,29.0853366 19,30.56 L20,30.56 L20,19.12 L19,19.12 C18.8214698,20.5326774 18.2691284,21.8721054 17.4,23 C16.88,23.5 16.04,24.05 13.89,24.05 L11.49,24.05 L11.49,12.75 L15.36,12.75 C16.4265642,12.7467886 17.4921889,12.8135989 18.55,12.95 C20.7,13.18 22.74,16.95 23.37,18.68 L24.38,18.69 Z"/>
    <path fill="#333" d="M49.8,6.44 C49.8755237,5.42849838 49.246583,4.49750065 48.28,4.19 C47.9,4.02 47.28,3.85 46.75,3.67 C45.86,3.35 45.48,2.94 45.48,2.25 C45.4664862,1.91069512 45.5904988,1.58029952 45.8239344,1.33368603 C46.0573701,1.08707255 46.3804647,0.945121056 46.72,0.94 C47.99,0.94 48.63,2.2 49.09,3.43 L49.39,3.43 L49.39,0.64 L48.96,0.64 L48.66,1.08 C48.0308659,0.727799283 47.3209935,0.545162225 46.6,0.55 C45.9108111,0.46553297 45.2177755,0.673854891 44.6893833,1.12431876 C44.160991,1.57478263 43.8456407,2.22612783 43.82,2.92 C43.7742571,3.9101965 44.3600162,4.82093168 45.28,5.19 C45.64,5.33 46.28,5.53 46.79,5.71 C47.67,6 48.08,6.44 48.08,7.13 C48.0861972,7.51904938 47.9302046,7.8931285 47.6494379,8.16251277 C47.3686712,8.43189704 46.9884601,8.57228357 46.6,8.55 C45.35,8.55 44.37,7.04 43.94,5.9 L43.63,5.9 L43.7,8.9 L44.1,8.9 L44.45,8.37 C45.1574149,8.79834737 45.9733443,9.01361386 46.8,8.99 C48.65,8.99 49.8,7.9 49.8,6.48 M43.27,6.36 L43,6.36 C42.7393031,7.01644522 42.3709126,7.62479654 41.91,8.16 C41.63,8.44 40.85,8.44 40.2,8.44 C39.12,8.44 38.94,8.31 38.94,7.44 L38.94,4.84 L39.65,4.84 C40.0116966,4.80227393 40.373066,4.91429843 40.65,5.15 C40.8962978,5.50787603 41.0539677,5.91918884 41.11,6.35 L41.42,6.35 L41.42,3 L41.11,3 C41.0636639,3.41184326 40.9044779,3.80288704 40.65,4.13 C40.3774978,4.37503033 40.014818,4.49471467 39.65,4.46 L38.94,4.46 L38.94,1.16 L40,1.16 C40.3329071,1.13616003 40.6670929,1.13616003 41,1.16 C41.63,1.24 42.23,2.3 42.41,2.84 L42.72,2.84 L42.72,0.74 L35.72,0.74 L35.72,1 C36.0222816,1.04839122 36.319986,1.12198107 36.61,1.22 C36.8540167,1.30728904 37.0039905,1.55307944 36.97,1.81 L36.97,7.75 C37.0018781,8.00167092 36.8509495,8.24064126 36.61,8.32 C36.3175985,8.39265122 36.0200615,8.44279791 35.72,8.47 L35.72,8.75 L43.13,8.75 L43.27,6.36 Z M35.61,2.97 L35.61,0.79 L28.2,0.79 L28.2,2.97 L28.51,2.97 C28.68,2.46 29.33,1.28 29.83,1.21 C30.1129636,1.18952906 30.3970364,1.18952906 30.68,1.21 L30.92,1.21 L30.92,7.85 C30.9433331,8.09920963 30.8013577,8.33448309 30.57,8.43 C30.2430153,8.51574038 29.9077503,8.56603013 29.57,8.58 L29.57,8.86 L34.17,8.86 L34.17,8.58 C33.8324329,8.53659828 33.4982933,8.46977036 33.17,8.38 C32.9374024,8.27914128 32.7932996,8.04297279 32.81,7.79 L32.81,1.21 L33.05,1.21 C33.3362797,1.18893634 33.6237203,1.18893634 33.91,1.21 C34.41,1.28 35.06,2.46 35.22,2.97 L35.61,2.97 Z M23.61,1.14 C24.0681105,1.08404078 24.5259075,1.24647469 24.8462983,1.57865902 C25.1666891,1.91084335 25.3124755,2.37421057 25.24,2.83 C25.3090505,3.33352368 25.1362941,3.84008823 24.7739752,4.19649969 C24.4116564,4.55291116 23.9023207,4.71731773 23.4,4.64 L23.22,4.64 L23.22,1.14 L23.61,1.14 Z M24.33,0.79 L20,0.79 L20,1 C20.3038276,1.03512945 20.6025157,1.10560642 20.89,1.21 C21.135107,1.29002658 21.287058,1.53483649 21.25,1.79 L21.25,7.79 C21.2818781,8.04167092 21.1309495,8.28064126 20.89,8.36 C20.6002612,8.44481158 20.3015316,8.49515926 20,8.51 L20,8.79 L24.41,8.79 L24.41,8.51 C24.1282375,8.47653865 23.850311,8.41626544 23.58,8.33 C23.3479297,8.2409242 23.2044529,8.0072619 23.23,7.76 L23.23,5 L23.61,5 C24.61,5 24.94,5.72 25.1,7 C25.28,8.48 25.87,9 26.92,9 C28.31,9 28.61,8.25 28.64,7.28 L28.64,6.92 L28.3,6.92 L28.3,7.26 C28.3,7.9 28.1,8.26 27.81,8.26 C27.52,8.26 27.36,8.08 27.28,7.71 C27.16,7.16 27.11,6.71 26.94,6.09 C26.6607706,5.38441741 25.9884875,4.91263981 25.23,4.89 L25.23,4.8 C26.31,4.53 27.36,3.97 27.36,2.69 C27.36,1.41 26.17,0.86 24.36,0.86 M16.16,5.68 L13.96,5.68 L15,2.73 L16.16,5.68 Z M20.25,8.88 L20.25,8.6 C19.9960908,8.57409189 19.7488635,8.50297174 19.52,8.39 C19.3013074,8.26566368 19.1345235,8.06694254 19.05,7.83 C18.84,7.33 16.88,2.11 16.32,0.73 L15.41,0.73 C15.02,1.73 13.14,6.57 12.77,7.49 C12.6222306,8.15147312 12.0275815,8.61630449 11.35,8.6 L11.35,8.88 L14.55,8.88 L14.55,8.6 C14.15,8.6 13.26,8.4 13.26,7.99 C13.2704237,7.74435229 13.3176148,7.50165517 13.4,7.27 C13.4,7.11 13.71,6.34 13.78,6.14 L16.3,6.14 L16.95,7.89 C16.965927,7.97257233 16.965927,8.05742767 16.95,8.14 C16.95,8.43 16.19,8.57 15.79,8.6 L15.79,8.88 L20.25,8.88 Z M11.6,8.88 L11.6,8.6 C11.3076778,8.57120938 11.0193314,8.5108578 10.74,8.42 C10.5084577,8.32893403 10.3627355,8.09820715 10.38,7.85 L10.38,1.85 C10.3470827,1.5957169 10.4975195,1.35334654 10.74,1.27 C11.0197643,1.19919643 11.3036394,1.14576112 11.59,1.11 L11.59,0.84 L8.09,0.84 C8.05197562,1.18203063 7.97135072,1.51796769 7.85,1.84 L6.2,6 L4.2,0.78 L0.67,0.78 L0.67,1 C1.02588329,1.01570575 1.37111346,1.12617941 1.67,1.32 C1.93415614,1.58182644 2.06322361,1.95059064 2.02,2.32 L2.02,6.58 C2.02,7.47 1.92,7.99 1.65,8.19 C1.31512422,8.35410671 0.951912822,8.45254719 0.58,8.48 L0.58,8.76 L4.05,8.76 L4.05,8.48 C3.64746107,8.42715744 3.25783142,8.30179833 2.9,8.11 C2.63,7.89 2.51,7.45 2.51,6.53 L2.51,2.21 L2.51,1.78 L4.51,6.99 C4.65,7.33 5,8.38 5.07,8.63 L5.63,8.63 L8.31,1.57 L8.31,1.48 L8.31,7.73 C8.32677843,7.98881107 8.17257594,8.22823072 7.93,8.32 C7.62393549,8.40962246 7.30847975,8.46331706 6.99,8.48 L6.99,8.76 L11.6,8.88 Z"/>
  </g>
</svg>
