<svg xmlns="http://www.w3.org/2000/svg" width="261" height="34" viewBox="0 0 261 34">
  <g fill="none">
    <polygon fill="#0062DB" points="12.34 1.12 21.34 1.12 25.14 18 36 1.12 45.09 1.12 44.18 32.73 35.05 32.73 36.05 14.54 36 14.54 24 32.73 20.33 32.73 15.85 14.54 15.76 14.54 9.25 32.73 .16 32.73"/>
    <polygon fill="#0062DB" points="49.07 9.78 44.56 32.74 53.69 32.74 58.2 9.78"/>
    <polygon fill="#0062DB" points="50.74 1.12 49.38 8.08 58.54 8.08 59.87 1.12"/>
    <polygon fill="#0062DB" points="92.76 1.12 83.63 1.12 77.42 32.74 85.85 32.74 86.87 31.1"/>
    <path fill="#0062DB" d="M115.54,1.12 L105.54,1.12 L86.84,31.12 L86.52,32.75 L95.52,32.75 L99.02,27.26 L111.6,27.26 L112.8,32.75 L121.88,32.75 L122.19,31.2 L115.54,1.12 Z M102.79,21 L108.54,10.94 L108.64,10.94 L110.38,21 L102.79,21 Z"/>
    <polygon fill="#2E3A97" points="85.85 32.74 86.55 32.74 86.87 31.1"/>
    <path fill="#0062DB" d="M142.64,19.82 L142.64,19.82 L142.64,19.82 L142.64,19.82 C145.02385,19.5036991 147.235745,18.4065427 148.93,16.7 C150.522601,15.1151782 151.608529,13.0929845 152.05,10.89 C152.716667,7.51 152.05,5.04333333 150.05,3.49 C148.05,1.93666667 145.303333,1.14666667 141.81,1.12 L128.12,1.12 L122.21,31.18 L122.56,32.73 L131,32.73 L133.39,20.58 L133.49,20.58 L139.72,32.73 L150.06,32.73 L150.29,31.53 L142.64,19.82 Z M142.45,11.39 C142.280984,12.7561751 141.402503,13.931286 140.14,14.48 C138.89716,14.993665 137.573671,15.2847649 136.23,15.34 L135.81,15.34 C135.65538,15.3387709 135.501273,15.3220202 135.35,15.29 L134.46,15.29 L136.01,7.41 L137.78,7.41 C139.021757,7.44110657 140.242457,7.73775712 141.36,8.28 C142.39,8.8 142.76,9.84 142.45,11.39 L142.45,11.39 Z"/>
    <polygon fill="#2E3A97" points="121.9 32.74 122.56 32.74 122.21 31.18"/>
    <polygon fill="#0062DB" points="156.3 1.12 150.32 31.53 151.11 32.74 159.22 32.74 165.43 1.12"/>
    <polygon fill="#2E3A97" points="150.09 32.74 151.11 32.74 150.32 31.53"/>
    <path fill="#0062DB" d="M198.37 4.66C194.901606 1.58494445 190.393557-.0559710797 185.76.07L185.76.12C180.608439.143604633 175.584731 1.7263689 171.35 4.66 166.81 7.7 164.07 11.6066667 163.13 16.38 162.123333 21.5 163.123333 25.68 166.13 28.92 169.136667 32.16 173.47 33.78 179.13 33.78 184.503293 33.8706157 189.75224 32.1596912 194.04 28.92 198.194827 25.9075019 201.042175 21.4218552 202 16.38 202.926667 11.6 201.716667 7.69333333 198.37 4.66zM192.48 16.4C191.953236 19.1061533 190.438252 21.5194338 188.23 23.17 186.098671 24.9032991 183.437151 25.8528333 180.69 25.86 178.239177 25.9733674 175.86479 24.9913679 174.21 23.18 172.601618 21.3286427 172.0104 18.8028702 172.63 16.43 173.190176 14.0479421 174.638856 11.9697135 176.68 10.62 178.835774 8.9534599 181.475376 8.03381121 184.2 8 186.632312 7.88332886 188.999412 8.80689794 190.71 10.54 192.274816 12.0551182 192.944408 14.2719593 192.48 16.4zM76.74 5.73C73.84 2.69 69.94 1.15333333 65.04 1.12L61.56 1.12 60.19 8.12 62 8.12C64.9533333 8.12 67.2066667 8.89 68.76 10.43 70.32 11.97 70.83 14.16 70.27 16.99 69.8641104 19.7578349 68.286558 22.2170679 65.94 23.74 63.688017 25.1393717 61.0810288 25.8614137 58.43 25.82L56.71 25.82 55.34 32.7700046 58.83 32.7700046C63.6961096 32.7731371 68.4285839 31.178079 72.3 28.23 76.1430521 25.5881041 78.8188101 21.5655121 79.77 17 80.7658801 12.97223 79.6213935 8.71534422 76.74 5.73L76.74 5.73zM198 29.9C198.200985 29.0793842 198.704616 28.3650139 199.41 27.9 200.142359 27.3686307 201.025192 27.0848629 201.93 27.09 202.728958 27.0438578 203.5101 27.3381484 204.08 27.9 204.603888 28.4227978 204.796231 29.1921725 204.58 29.9 204.379015 30.7206158 203.875384 31.4349861 203.17 31.9 202.435464 32.4356954 201.549123 32.722968 200.64 32.72 199.842148 32.7657706 199.062972 32.4672078 198.5 31.9 197.976112 31.3772022 197.783769 30.6078275 198 29.9zM220 22.11C219.617384 21.6161855 219.133119 21.2103577 218.58 20.92 218.042291 20.655014 217.449395 20.5213553 216.85 20.53 215.894826 20.5139641 214.965453 20.840309 214.23 21.45 213.479434 22.074781 212.961523 22.9344434 212.76 23.89 212.499383 24.6895117 212.613277 25.5639235 213.07 26.27 213.58815 26.8961138 214.380192 27.2286222 215.19 27.16 215.830572 27.1506988 216.464152 27.0253382 217.06 26.79 217.851957 26.4674157 218.609163 26.0653594 219.32 25.59L217.63 32C216.936757 32.2578473 216.224641 32.4617866 215.5 32.61 214.840754 32.7370133 214.171343 32.8039543 213.5 32.81 212.721128 32.8170192 211.94464 32.7228994 211.19 32.53 210.522099 32.3685401 209.884129 32.1018756 209.3 31.74 208.080742 30.9765551 207.154247 29.8246008 206.67 28.47 206.201668 26.9976222 206.166953 25.4215712 206.57 23.93 206.858607 22.6854912 207.355616 21.4987562 208.04 20.42 208.734349 19.3354821 209.598737 18.3697979 210.6 17.56 211.607582 16.74824 212.743045 16.1095422 213.96 15.67 215.160491 15.2428153 216.425774 15.0262963 217.7 15.0298305 218.372378 15.025896 219.043139 15.0963259 219.7 15.24 220.323685 15.384413 220.927943 15.6026174 221.5 15.89L220 22.11zM238.57 23.89C238.2837 25.1196394 237.786332 26.2903165 237.1 27.35 235.669779 29.5459531 233.563712 31.2167665 231.1 32.11 229.921518 32.5440608 228.675875 32.767464 227.42 32.77 226.252995 32.7900469 225.094749 32.565211 224.02 32.11 223.042821 31.6877509 222.186826 31.0277068 221.53 30.19 220.879391 29.3721457 220.449056 28.4013088 220.28 27.37 220.097335 26.2111222 220.151767 25.0272273 220.44 23.89 220.723378 22.6516938 221.217216 21.4712195 221.9 20.4 222.586259 19.318003 223.452001 18.3609528 224.46 17.57 225.469377 16.7529602 226.608467 16.1107434 227.83 15.67 229.01794 15.2324623 230.274046 15.0090043 231.54 15.01 232.710234 14.9900333 233.871726 15.2148382 234.95 15.67 235.925841 16.08512 236.781965 16.7383876 237.44 17.57 238.085938 18.3971162 238.512466 19.3740034 238.68 20.41 238.879863 21.5654458 238.842436 22.7494831 238.57 23.89zM228.78 27.08C229.616364 27.0868799 230.424139 26.7759222 231.04 26.21 231.716615 25.5975951 232.179226 24.7845217 232.36 23.89 232.612866 23.1109817 232.525736 22.2614695 232.12 21.55 231.71425 20.9353243 231.003501 20.5933962 230.27 20.66 229.422443 20.6551132 228.605698 20.9775125 227.99 21.56 227.315445 22.1796928 226.850595 22.9940554 226.66 23.89 226.414808 24.6642243 226.505494 25.5057862 226.91 26.21 227.336872 26.8087849 228.047019 27.1391741 228.78 27.08L228.78 27.08zM253.45 32.32L254.26 25.61C254.34 25.1 254.41 24.61 254.48 24.07 254.55 23.53 254.64 23.07 254.73 22.53 254.54 23.01 254.33 23.53 254.07 24.07 253.81 24.61 253.53 25.19 253.2 25.81L249.75 32.32 246.13 32.32 245.7 25.81C245.65 25.19 245.63 24.61 245.63 24.07 245.626922 23.5558062 245.650286 23.0417942 245.7 22.53 245.54 23.05 245.38 23.53 245.22 24.07L244.73 25.61 242.43 32.32 236.43 32.32 243.25 15.39 249.52 15.39 249.75 19.58C249.75 19.71 249.75 19.91 249.75 20.17 249.855695 21.6227498 249.828918 23.0821055 249.67 24.53L249.78 24.53C250.04 23.81 250.35 23.05 250.72 22.24 251.09 21.43 251.56 20.52 252.1 19.51L254.31 15.39 260.58 15.39 259.33 32.32 253.45 32.32z"/>
  </g>
</svg>
